<svg xmlns="http://www.w3.org/2000/svg" xmlns:xlink="http://www.w3.org/1999/xlink" width="227.716" height="205" viewBox="0 0 227.716 205">
  <defs>
    <filter id="Sustracción_8" x="145.716" y="0" width="82" height="82" filterUnits="userSpaceOnUse">
      <feOffset dy="3" input="SourceAlpha"/>
      <feGaussianBlur stdDeviation="3" result="blur"/>
      <feFlood flood-opacity="0.161"/>
      <feComposite operator="in" in2="blur"/>
      <feComposite in="SourceGraphic"/>
    </filter>
  </defs>
  <g id="Grupo_160" data-name="Grupo 160" transform="translate(-875.284 -436)">
    <g id="Grupo_159" data-name="Grupo 159" transform="translate(-46.465 202.706)">
      <ellipse id="Elipse_27" data-name="Elipse 27" cx="83" cy="7.5" rx="83" ry="7.5" transform="translate(958 423.294)" fill="rgba(0,0,0,0.12)"/>
      <g id="Rectángulo_74" data-name="Rectángulo 74" transform="matrix(0.966, -0.259, 0.259, 0.966, 921.749, 322.191)" fill="none" stroke="#6200ee" stroke-width="5">
        <rect width="181.305" height="117.093" rx="10" stroke="none"/>
        <rect x="2.5" y="2.5" width="176.305" height="112.093" rx="7.5" fill="none"/>
      </g>
      <path id="Trazado_96" data-name="Trazado 96" d="M-3756.166,4896.548l94.048,21.7,73.377-71.052" transform="translate(4685.63 -4555.82)" fill="none" stroke="#6200ee" stroke-width="5"/>
    </g>
    <g transform="matrix(1, 0, 0, 1, 875.28, 436)" filter="url(#Sustracción_8)">
      <path id="Sustracción_8-2" data-name="Sustracción 8" d="M4712-5674a31.809,31.809,0,0,1-12.457-2.515,31.889,31.889,0,0,1-10.171-6.858,31.882,31.882,0,0,1-6.858-10.171A31.8,31.8,0,0,1,4680-5706a31.809,31.809,0,0,1,2.515-12.457,31.892,31.892,0,0,1,6.858-10.171,31.9,31.9,0,0,1,10.171-6.858A31.809,31.809,0,0,1,4712-5738a31.8,31.8,0,0,1,12.456,2.515,31.891,31.891,0,0,1,10.171,6.858,31.9,31.9,0,0,1,6.858,10.171A31.809,31.809,0,0,1,4744-5706a31.8,31.8,0,0,1-2.515,12.456,31.886,31.886,0,0,1-6.858,10.171,31.887,31.887,0,0,1-10.171,6.858A31.8,31.8,0,0,1,4712-5674Zm-13.655-36.423a1.789,1.789,0,0,0-1.273.527l-2.546,2.546a1.789,1.789,0,0,0-.526,1.273,1.789,1.789,0,0,0,.526,1.273l11.7,11.7a1.789,1.789,0,0,0,1.273.527,1.789,1.789,0,0,0,1.273-.527l20.7-20.7a1.8,1.8,0,0,0,0-2.546l-2.545-2.544a1.788,1.788,0,0,0-1.273-.528,1.785,1.785,0,0,0-1.272.528l-16.881,16.88-7.882-7.881A1.787,1.787,0,0,0,4698.346-5710.423Z" transform="translate(-4525.28 5744)" fill="#975eea"/>
    </g>
  </g>
</svg>
